<svg xmlns="http://www.w3.org/2000/svg" xmlns:xlink="http://www.w3.org/1999/xlink" width="40" zoomAndPan="magnify" viewBox="0 0 30 30.000001" height="40" preserveAspectRatio="xMidYMid meet" version="1.0"><defs><g/></defs><g fill="#5a6471" fill-opacity="1"><g transform="translate(6.116431, 23.951651)"><g><path d="M 1.21875 -5.574219 L 1.21875 -1.132812 C 3.890625 0.0273438 6.242188 0.289062 8.738281 0.289062 C 12.65625 0.289062 16.542969 -1.304688 16.542969 -5.921875 C 16.542969 -12.828125 6.445312 -11.640625 6.445312 -14.425781 C 6.445312 -15.761719 7.71875 -15.964844 9.347656 -15.964844 C 11.03125 -15.964844 13.148438 -15.414062 15.558594 -14.191406 L 16.109375 -18.605469 C 13.613281 -19.476562 11.726562 -20.027344 8.621094 -20.027344 C 4.761719 -20.027344 1.277344 -18.34375 1.277344 -14.164062 C 1.277344 -7.082031 11.40625 -8.300781 11.40625 -5.457031 C 11.40625 -4.035156 9.695312 -3.773438 8.011719 -3.773438 C 6.039062 -3.773438 3.222656 -4.324219 1.21875 -5.574219 Z M 1.21875 -5.574219 "/></g></g></g></svg>